<?xml version="1.0" encoding="UTF-8" standalone="no"?>
<svg
   xmlns:dc="http://purl.org/dc/elements/1.1/"
   xmlns:cc="http://creativecommons.org/ns#"
   xmlns:rdf="http://www.w3.org/1999/02/22-rdf-syntax-ns#"
   xmlns:svg="http://www.w3.org/2000/svg"
   xmlns="http://www.w3.org/2000/svg"
   xmlns:xlink="http://www.w3.org/1999/xlink"
   xmlns:sodipodi="http://sodipodi.sourceforge.net/DTD/sodipodi-0.dtd"
   xmlns:inkscape="http://www.inkscape.org/namespaces/inkscape"
   width="50mm"
   height="50mm"
   viewBox="0 0 50 49.999998"
   version="1.1"
   id="svg1015"
   inkscape:version="1.0.1 (3bc2e813f5, 2020-09-07)"
   sodipodi:docname="logoKel8-white.svg">
  <defs
     id="defs1009">
    <linearGradient
       inkscape:collect="always"
       xlink:href="#linearGradient959"
       id="linearGradient961"
       x1="78.902451"
       y1="75.969032"
       x2="62.465584"
       y2="52.315678"
       gradientUnits="userSpaceOnUse"
       gradientTransform="translate(54.255715,5.8799296)" />
    <linearGradient
       inkscape:collect="always"
       id="linearGradient959">
      <stop
         style="stop-color:#e6166c;stop-opacity:1;"
         offset="0"
         id="stop955" />
      <stop
         style="stop-color:#e66d16;stop-opacity:1"
         offset="1"
         id="stop957" />
    </linearGradient>
  </defs>
  <sodipodi:namedview
     id="base"
     pagecolor="#ffffff"
     bordercolor="#666666"
     borderopacity="1.0"
     inkscape:pageopacity="0.0"
     inkscape:pageshadow="2"
     inkscape:zoom="1.979899"
     inkscape:cx="88.255428"
     inkscape:cy="51.067607"
     inkscape:document-units="mm"
     inkscape:current-layer="layer1"
     inkscape:document-rotation="0"
     showgrid="false"
     inkscape:snap-page="true"
     inkscape:snap-smooth-nodes="true"
     inkscape:object-paths="true"
     inkscape:window-width="1366"
     inkscape:window-height="705"
     inkscape:window-x="-8"
     inkscape:window-y="-8"
     inkscape:window-maximized="1" />
  <metadata
     id="metadata1012">
    <rdf:RDF>
      <cc:Work
         rdf:about="">
        <dc:format>image/svg+xml</dc:format>
        <dc:type
           rdf:resource="http://purl.org/dc/dcmitype/StillImage" />
        <dc:title />
      </cc:Work>
    </rdf:RDF>
  </metadata>
  <g
     inkscape:label="Layer 1"
     inkscape:groupmode="layer"
     id="layer1">
    <g
       id="g997"
       transform="matrix(1.5676095,0,0,1.5676095,-175.98913,-92.623359)">
      <ellipse
         style="fill:#ffffff;fill-opacity:1;stroke:none;stroke-width:6.2806;stroke-linecap:round;stroke-linejoin:round;stroke-miterlimit:4;stroke-dasharray:none;stroke-opacity:1"
         id="path963"
         cx="128.21378"
         cy="75.033585"
         rx="15.90264"
         ry="15.902639" />
      <path
         id="circle928"
         style="fill:url(#linearGradient961);fill-opacity:1;stroke:none;stroke-width:0.595312;stroke-linecap:round;stroke-linejoin:round"
         d="m 128.21404,61.135468 a 13.898014,13.898014 0 0 0 -12.74186,8.348845 h 5.32061 a 0.94999997,0.94999997 0 0 1 0.95084,0.949296 0.94999997,0.94999997 0 0 1 -0.95084,0.949296 h -5.98878 a 13.898014,13.898014 0 0 0 -0.48835,3.650941 13.898014,13.898014 0 0 0 0.48783,3.649905 h 5.9893 a 0.94999997,0.94999997 0 0 1 0.95084,0.950847 0.94999997,0.94999997 0 0 1 -0.95084,0.949296 h -5.32061 a 13.898014,13.898014 0 0 0 12.74186,8.34781 13.898014,13.898014 0 0 0 11.96826,-6.833693 c -0.22071,0.03783 -0.446,0.06201 -0.67696,0.06201 -2.21896,0 -4.03696,-1.820066 -4.03696,-4.039031 0,-1.235212 0.56411,-2.344827 1.44642,-3.087147 -0.88231,-0.742866 -1.44642,-1.853489 -1.44642,-3.088701 0,-2.218965 1.818,-4.036965 4.03696,-4.036965 0.23131,0 0.45697,0.02411 0.678,0.06201 a 13.898014,13.898014 0 0 0 -11.9693,-6.834719 z m -3.39721,8.347811 8.83099,0.0093 v 2.864424 c 0,0.44536 -0.0887,0.765437 -0.26562,0.960665 -0.17082,0.189124 -0.39632,0.283702 -0.67696,0.283702 -0.27454,0 -0.50056,-0.09458 -0.67748,-0.283702 -0.17082,-0.189127 -0.25631,-0.509207 -0.25631,-0.960665 v -0.988571 h -4.78576 v 2.718181 h 1.64693 c 0,-0.488066 0.046,-0.802259 0.13746,-0.942578 0.18912,-0.298942 0.45737,-0.448553 0.80512,-0.448553 0.27453,0 0.49735,0.09778 0.66817,0.293007 0.17693,0.189124 0.26562,0.509204 0.26562,0.960665 v 2.160074 c 0,0.451461 -0.0887,0.77474 -0.26562,0.969965 -0.17082,0.189127 -0.39632,0.283705 -0.67696,0.283705 -0.34164,0 -0.60721,-0.149611 -0.79633,-0.448551 -0.0915,-0.140319 -0.13746,-0.457716 -0.13746,-0.95188 h -1.64693 v 2.745568 h 1.92185 c 0.45146,0 0.77154,0.08818 0.96066,0.265101 0.19523,0.170823 0.29301,0.396838 0.29301,0.677477 0,0.274537 -0.0978,0.500038 -0.29301,0.676963 -0.18912,0.170822 -0.5092,0.256315 -0.96066,0.256315 h -4.09071 c -0.45146,0 -0.77474,-0.08549 -0.96996,-0.256315 -0.18913,-0.176925 -0.28371,-0.405625 -0.28371,-0.686263 0,-0.274537 0.0973,-0.497354 0.29249,-0.668177 0.19523,-0.176924 0.51582,-0.265101 0.96118,-0.265101 h 0.29249 v -7.339603 h -0.29249 c -0.45146,0 -0.77474,-0.08498 -0.96996,-0.255799 -0.18913,-0.176922 -0.28371,-0.406141 -0.28371,-0.686779 0,-0.280638 0.0946,-0.50614 0.28371,-0.67696 0.19522,-0.176925 0.5185,-0.265618 0.96996,-0.265618 z m 14.68851,0.323495 c -1.19213,0 -2.13682,0.946243 -2.13682,2.138371 0,1.192128 0.94469,2.138886 2.13682,2.138886 1.19213,0 2.13889,-0.946758 2.13889,-2.138886 0,-1.192128 -0.94676,-2.138371 -2.13889,-2.138371 z m -21.49016,2.744018 a 0.94999997,0.94999997 0 0 1 0.0155,0 h 2.76211 a 0.94999997,0.94999997 0 0 1 0.95084,0.949296 0.94999997,0.94999997 0 0 1 -0.95084,0.951362 h -2.76211 a 0.94999997,0.94999997 0 0 1 -0.94929,-0.951362 0.94999997,0.94999997 0 0 1 0.93379,-0.949296 z m 24.09672,2.468583 c -0.005,0.0046 -0.0101,0.0099 -0.0155,0.01447 0.005,0.0045 0.0101,0.0099 0.0155,0.01447 a 13.898014,13.898014 0 0 0 0,-0.01447 13.898014,13.898014 0 0 0 0,-0.01447 z m -24.09672,0.597895 a 0.94999997,0.94999997 0 0 1 0.0155,0 h 2.76211 a 0.94999997,0.94999997 0 0 1 0.95084,0.949296 0.94999997,0.94999997 0 0 1 -0.95084,0.950847 h -2.76211 a 0.94999997,0.94999997 0 0 1 -0.94929,-0.950847 0.94999997,0.94999997 0 0 1 0.93379,-0.949296 z m 21.49016,0.366903 c -1.19213,0 -2.13682,0.944692 -2.13682,2.13682 0,1.192128 0.94469,2.138889 2.13682,2.138889 1.19213,0 2.13889,-0.946761 2.13889,-2.138889 0,-1.192128 -0.94676,-2.13682 -2.13889,-2.13682 z" />
    </g>
  </g>
</svg>
